<svg xmlns="http://www.w3.org/2000/svg" xmlns:xlink="http://www.w3.org/1999/xlink" width="1080" zoomAndPan="magnify" viewBox="0 0 810 809.999993" height="1080" preserveAspectRatio="xMidYMid meet" version="1.0"><defs><g/><clipPath id="05de270c22"><path d="M 75 0 L 735 0 C 776.421875 0 810 33.578125 810 75 L 810 735 C 810 776.421875 776.421875 810 735 810 L 75 810 C 33.578125 810 0 776.421875 0 735 L 0 75 C 0 33.578125 33.578125 0 75 0 Z M 75 0 " clip-rule="nonzero"/></clipPath></defs><g clip-path="url(#05de270c22)"><rect x="-81" width="972" fill="#323232" y="-80.999999" height="971.999992" fill-opacity="1"/></g><g fill="#ffffff" fill-opacity="1"><g transform="translate(92.910944, 732.176381)"><g><path d="M 74.546875 -249.671875 L 74.546875 -153.96875 L 133.5 -153.96875 L 133.5 -249.671875 L 185.515625 -249.671875 L 185.515625 0 L 133.5 0 L 133.5 -105.421875 L 74.546875 -105.421875 L 74.546875 0 L 22.546875 0 L 22.546875 -249.671875 Z M 74.546875 -249.671875 "/></g></g></g><g fill="#ffffff" fill-opacity="1"><g transform="translate(300.972559, 732.176381)"><g><path d="M 5.203125 -249.671875 L 59.640625 -249.671875 L 96.75 -161.25 C 98.59375 -157.3125 99.921875 -153.492188 100.734375 -149.796875 C 101.546875 -146.097656 102.179688 -142.75 102.640625 -139.75 C 103.109375 -136.28125 103.457031 -133.039062 103.6875 -130.03125 L 106.109375 -130.03125 C 106.335938 -133.039062 106.6875 -136.28125 107.15625 -139.75 C 107.613281 -142.75 108.304688 -146.097656 109.234375 -149.796875 C 110.160156 -153.492188 111.429688 -157.3125 113.046875 -161.25 L 148.765625 -249.671875 L 202.859375 -249.671875 L 130.03125 -86.6875 L 130.03125 0 L 78.015625 0 L 78.015625 -86.6875 Z M 5.203125 -249.671875 "/></g></g></g><g fill="#ffffff" fill-opacity="1"><g transform="translate(509.034173, 732.176381)"><g><path d="M 104.03125 -48.546875 C 114.664062 -48.546875 123.21875 -51.550781 129.6875 -57.5625 C 136.164062 -63.570312 139.40625 -71.546875 139.40625 -81.484375 L 139.40625 -168.53125 C 139.40625 -178.238281 136.164062 -186.097656 129.6875 -192.109375 C 123.21875 -198.117188 114.664062 -201.125 104.03125 -201.125 L 73.859375 -201.125 L 73.859375 -48.546875 Z M 21.84375 0 L 21.84375 -249.671875 L 104.03125 -249.671875 C 117.207031 -249.671875 129.171875 -247.765625 139.921875 -243.953125 C 150.671875 -240.140625 159.859375 -234.648438 167.484375 -227.484375 C 175.117188 -220.316406 181.015625 -211.757812 185.171875 -201.8125 C 189.335938 -191.875 191.421875 -180.78125 191.421875 -168.53125 L 191.421875 -81.484375 C 191.421875 -69.234375 189.335938 -58.078125 185.171875 -48.015625 C 181.015625 -37.960938 175.117188 -29.410156 167.484375 -22.359375 C 159.859375 -15.316406 150.671875 -9.828125 139.921875 -5.890625 C 129.171875 -1.960938 117.207031 0 104.03125 0 Z M 21.84375 0 "/></g></g></g></svg>